<?xml version="1.0" standalone="no"?>
<!DOCTYPE svg PUBLIC "-//W3C//DTD SVG 20010904//EN"
 "http://www.w3.org/TR/2001/REC-SVG-20010904/DTD/svg10.dtd">
<svg version="1.0" xmlns="http://www.w3.org/2000/svg"
 width="80.000000pt" height="80.000000pt" viewBox="0 0 80.000000 80.000000"
 preserveAspectRatio="xMidYMid meet">

<g transform="translate(0.000000,80.000000) scale(0.100000,-0.100000)"
fill="#000000" stroke="none">
<path d="M276 769 c-80 -27 -138 -69 -184 -132 -64 -87 -77 -128 -77 -242 0
-89 3 -107 29 -162 35 -77 113 -153 193 -191 81 -37 205 -43 296 -13 98 33
173 99 222 194 38 75 39 82 39 170 -1 105 -15 154 -71 235 -94 137 -284 197
-447 141z m285 -23 c158 -74 247 -241 219 -410 -9 -56 -66 -176 -86 -183 -5
-2 -16 13 -23 32 -7 19 -32 51 -56 71 l-43 37 23 43 c12 23 41 60 64 82 33 31
41 46 41 75 0 45 -41 97 -76 97 -15 0 -36 13 -54 33 -16 19 -48 42 -72 52 -24
10 -51 25 -60 33 -10 8 -18 11 -18 6 0 -5 -5 -2 -10 6 -9 13 -11 13 -20 0 -5
-8 -10 -11 -10 -6 0 5 -8 2 -17 -6 -10 -9 -34 -23 -54 -31 -20 -8 -52 -31 -71
-51 -19 -20 -45 -36 -57 -36 -37 0 -71 -43 -71 -90 0 -52 13 -76 50 -95 17 -9
30 -22 30 -29 0 -7 11 -29 24 -48 l24 -36 -42 -29 c-25 -18 -51 -48 -63 -73
l-20 -44 -31 43 c-48 66 -65 129 -60 224 3 62 10 96 30 139 46 100 137 180
241 214 68 22 200 13 268 -20z m-183 -182 c20 -14 24 -14 44 0 33 23 75 20
103 -9 30 -29 32 -59 5 -102 -19 -32 -20 -32 -54 -18 -44 19 -113 19 -146 0
-35 -20 -38 -19 -60 18 -26 43 -25 73 5 102 28 29 70 32 103 9z m-190 -69 c0
-64 -1 -65 -19 -49 -31 28 -22 114 12 114 3 0 7 -29 7 -65z m456 43 c22 -31
20 -52 -7 -83 l-22 -27 0 66 c0 36 3 66 7 66 4 0 14 -10 22 -22z m-167 -117
c46 -21 63 -45 63 -88 0 -60 -59 -103 -141 -103 -114 0 -180 97 -111 163 52
50 118 60 189 28z" fill="#A81742"/>
<path d="M314 506 c-7 -19 3 -36 22 -36 10 0 14 8 12 22 -4 26 -26 36 -34 14z" fill="#A81742"/>
<path d="M457 513 c-13 -12 -7 -43 7 -43 19 0 28 14 20 34 -7 17 -16 20 -27 9z" fill="#A81742"/>
<path d="M375 400 c3 -5 8 -10 11 -10 2 0 4 5 4 10 0 6 -5 10 -11 10 -5 0 -7
-4 -4 -10z" fill="#A81742"/>
<path d="M415 400 c-3 -5 -2 -10 4 -10 5 0 13 5 16 10 3 6 2 10 -4 10 -5 0
-13 -4 -16 -10z" fill="#A81742"/>
<path d="M324 316 c39 -32 141 -28 163 6 4 8 0 9 -13 2 -24 -11 -122 -11 -149
0 -20 7 -20 7 -1 -8z" fill="#A81742"/>
</g>
</svg>
